<svg width="40" height="40" viewBox="0 0 40 40" fill="none" xmlns="http://www.w3.org/2000/svg">
<path d="M23.3347 24.835V34.3396C23.3364 35.6283 25.9471 36.6736 29.1696 36.6736C32.3922 36.6736 35.0029 35.6283 35.0046 34.3396V24.835" stroke="white" stroke-width="2" stroke-linecap="round" stroke-linejoin="round"/>
<path d="M23.3364 29.5872C23.3364 30.8758 25.9488 31.9211 29.1713 31.9211C32.3939 31.9211 35.0063 30.8758 35.0063 29.5872" stroke="white" stroke-width="2" stroke-linecap="round" stroke-linejoin="round"/>
<path d="M9.99583 18.3325H11.6632" stroke="white" stroke-width="2" stroke-linecap="round" stroke-linejoin="round"/>
<path d="M16.6653 18.3325H18.3326" stroke="white" stroke-width="2" stroke-linecap="round" stroke-linejoin="round"/>
<path d="M9.99583 23.3347H11.6632" stroke="white" stroke-width="2" stroke-linecap="round" stroke-linejoin="round"/>
<path d="M16.6653 23.3347H18.3326" stroke="white" stroke-width="2" stroke-linecap="round" stroke-linejoin="round"/>
<path d="M9.99583 18.3325H11.6632" stroke="white" stroke-width="2" stroke-linecap="round" stroke-linejoin="round"/>
<path d="M16.6653 18.3325H18.3326" stroke="white" stroke-width="2" stroke-linecap="round" stroke-linejoin="round"/>
<path d="M9.99583 28.3366H11.6632" stroke="white" stroke-width="2" stroke-linecap="round" stroke-linejoin="round"/>
<path d="M16.6653 28.3366H18.3326" stroke="white" stroke-width="2" stroke-linecap="round" stroke-linejoin="round"/>
<path d="M9.99583 28.3366H11.6632" stroke="white" stroke-width="2" stroke-linecap="round" stroke-linejoin="round"/>
<path d="M16.6653 28.3366H18.3326" stroke="white" stroke-width="2" stroke-linecap="round" stroke-linejoin="round"/>
<path d="M30.0042 13.3305H4.99374" stroke="white" stroke-width="2" stroke-linecap="round" stroke-linejoin="round"/>
<path d="M18.3326 33.3388H8.32847C6.48675 33.3388 4.99374 31.8458 4.99374 30.0041V8.32837C4.99374 6.48666 6.48675 4.99365 8.32847 4.99365H26.6694C28.5112 4.99365 30.0042 6.48666 30.0042 8.32837V18.3325" stroke="white" stroke-width="2" stroke-linecap="round" stroke-linejoin="round"/>
<path d="M9.99583 18.3325H11.6632" stroke="white" stroke-width="2" stroke-linecap="round" stroke-linejoin="round"/>
<path d="M16.6653 18.3325H18.3326" stroke="white" stroke-width="2" stroke-linecap="round" stroke-linejoin="round"/>
<path d="M23.3347 18.3325H25.0021" stroke="white" stroke-width="2" stroke-linecap="round" stroke-linejoin="round"/>
<path d="M23.3364 24.8349C23.3364 26.1236 25.9488 27.1689 29.1713 27.1689C32.3939 27.1689 35.0046 26.1236 35.0046 24.8349C35.0046 23.5446 32.3905 22.501 29.1696 22.501C25.9488 22.501 23.3364 23.5463 23.3347 24.8349" stroke="white" stroke-width="2" stroke-linecap="round" stroke-linejoin="round"/>
</svg>
