<svg width="65" height="65" viewBox="0 0 65 65" fill="none" xmlns="http://www.w3.org/2000/svg">
<path fill-rule="evenodd" clip-rule="evenodd" d="M56.8966 26.397V26.397C60.2652 26.397 63 29.1284 63 32.5004V32.5004C63 35.8689 60.2686 38.6037 56.8966 38.6037V38.6037C53.5281 38.6037 50.7932 35.8723 50.7932 32.5004V32.5004C50.8 29.1284 53.5315 26.397 56.8966 26.397Z" stroke="white" stroke-width="4" stroke-linecap="round" stroke-linejoin="round"/>
<path fill-rule="evenodd" clip-rule="evenodd" d="M32.5 11.6106V11.6106C35.8685 11.6106 38.6034 14.342 38.6034 17.714V17.714C38.6034 21.0825 35.8719 23.8174 32.5 23.8174V23.8174C29.1314 23.814 26.3966 21.0859 26.3966 17.714V17.714C26.3966 14.342 29.1281 11.6106 32.5 11.6106Z" stroke="white" stroke-width="4" stroke-linecap="round" stroke-linejoin="round"/>
<path fill-rule="evenodd" clip-rule="evenodd" d="M32.5 41.1853V41.1853C35.8685 41.1853 38.6034 43.9167 38.6034 47.2887V47.2887C38.6034 50.6572 35.8719 53.3921 32.5 53.3921V53.3921C29.1314 53.3921 26.3966 50.6606 26.3966 47.2887V47.2887C26.3966 43.9134 29.1281 41.1853 32.5 41.1853Z" stroke="white" stroke-width="4" stroke-linecap="round" stroke-linejoin="round"/>
<path d="M43.6833 24.0274L37.9561 20.3674" stroke="white" stroke-width="4" stroke-linecap="round" stroke-linejoin="round"/>
<path d="M51.7828 35.7874L46.0556 39.4474" stroke="white" stroke-width="4" stroke-linecap="round" stroke-linejoin="round"/>
<path fill-rule="evenodd" clip-rule="evenodd" d="M8.10339 38.6033V38.6033C4.73483 38.6033 2 35.8718 2 32.4999V32.4999C2 29.1313 4.73144 26.3999 8.10339 26.3999V26.3999C11.4719 26.3999 14.2068 29.1313 14.2068 32.5033V32.5033C14.2 35.8718 11.4686 38.6033 8.10339 38.6033Z" stroke="white" stroke-width="4" stroke-linecap="round" stroke-linejoin="round"/>
<path d="M21.3167 40.9719L27.0439 44.6319" stroke="white" stroke-width="4" stroke-linecap="round" stroke-linejoin="round"/>
<path d="M13.2172 29.2132L18.9444 25.5532" stroke="white" stroke-width="4" stroke-linecap="round" stroke-linejoin="round"/>
<path d="M2 52.8333V56.2221C2 59.9669 5.03306 62.9999 8.77778 62.9999H12.1667" stroke="white" stroke-width="4" stroke-linecap="round" stroke-linejoin="round"/>
<path d="M63 12.1667V8.77778C63 5.03306 59.967 2 56.2222 2H52.8333" stroke="white" stroke-width="4" stroke-linecap="round" stroke-linejoin="round"/>
<path d="M12.1667 2H8.77778C5.03306 2 2 5.03306 2 8.77778V12.1667" stroke="white" stroke-width="4" stroke-linecap="round" stroke-linejoin="round"/>
<path d="M52.8333 62.9999H56.2222C59.967 62.9999 63 59.9669 63 56.2221V52.8333" stroke="white" stroke-width="4" stroke-linecap="round" stroke-linejoin="round"/>
</svg>
