<svg width="64" height="58" viewBox="0 0 64 58" fill="none" xmlns="http://www.w3.org/2000/svg">
<path d="M55.0769 13.5361H8.92308C5.09957 13.5361 2 16.6357 2 20.4592V48.1515C2 51.975 5.09957 55.0746 8.92308 55.0746H55.0769C58.9004 55.0746 62 51.975 62 48.1515V20.4592C62 16.6357 58.9004 13.5361 55.0769 13.5361Z" stroke="white" stroke-width="4" stroke-linejoin="round"/>
<path d="M54.4077 13.5361V9.20922C54.4073 8.14798 54.1728 7.09989 53.7207 6.13974C53.2687 5.17959 52.6103 4.33104 51.7926 3.65464C50.9748 2.97823 50.0179 2.49065 48.99 2.22667C47.9621 1.96269 46.8886 1.92882 45.8462 2.12749L7.86154 8.61066C6.212 8.92501 4.72388 9.80515 3.65382 11.0993C2.58376 12.3934 1.99886 14.0204 2 15.6996V22.7669" stroke="white" stroke-width="4" stroke-linejoin="round"/>
<path d="M48.1538 38.9207C47.241 38.9207 46.3487 38.65 45.5897 38.1429C44.8307 37.6357 44.2391 36.9149 43.8898 36.0716C43.5405 35.2282 43.4491 34.3002 43.6271 33.4049C43.8052 32.5096 44.2448 31.6872 44.8903 31.0418C45.5357 30.3963 46.3581 29.9567 47.2534 29.7786C48.1487 29.6005 49.0767 29.6919 49.9201 30.0413C50.7634 30.3906 51.4842 30.9822 51.9914 31.7412C52.4985 32.5002 52.7692 33.3925 52.7692 34.3053C52.7692 35.5294 52.283 36.7033 51.4174 37.5689C50.5519 38.4345 49.3779 38.9207 48.1538 38.9207Z" fill="white"/>
</svg>
