<svg width="53" height="59" viewBox="0 0 53 59" fill="none" xmlns="http://www.w3.org/2000/svg">
<path d="M32.625 23.3889L26.5 26.4444M26.5 26.4444L20.375 23.3889M26.5 26.4444V34.0833M51 14.2222L44.875 17.2778M51 14.2222L44.875 11.1667M51 14.2222V21.8611M32.625 5.05556L26.5 2L20.375 5.05556M2 14.2222L8.125 11.1667M2 14.2222L8.125 17.2778M2 14.2222V21.8611M26.5 57L20.375 53.9444M26.5 57L32.625 53.9444M26.5 57V49.3611M8.125 47.8333L2 44.7778V37.1389M44.875 47.8333L51 44.7778V37.1389" stroke="white" stroke-width="4" stroke-linecap="round" stroke-linejoin="round"/>
</svg>
