<svg width="55" height="55" viewBox="0 0 55 55" fill="none" xmlns="http://www.w3.org/2000/svg">
<path d="M47.1167 12.744C47.4379 12.4254 47.693 12.0464 47.8674 11.6288C48.0419 11.2113 48.1321 10.7634 48.133 10.311C48.1339 9.85846 48.0454 9.41024 47.8727 8.99202C47.7 8.5738 47.4463 8.1938 47.1264 7.87384C46.8064 7.55388 46.4264 7.30025 46.0082 7.1275C45.59 6.95475 45.1417 6.86629 44.6892 6.86719C44.2368 6.86809 43.7889 6.95834 43.3714 7.13275C42.9538 7.30716 42.5748 7.5623 42.2562 7.88353L39.7919 10.3478C36.0921 8.08164 31.8387 6.88045 27.5 6.87646C14.8049 6.87646 7.05753 15.8725 0.579045 25.5936C0.201528 26.1578 0 26.8214 0 27.5002C0 28.1791 0.201528 28.8427 0.579045 29.4069C3.16954 33.4357 6.2083 37.1581 9.63714 40.5025L7.88333 42.2564C7.5621 42.575 7.30696 42.954 7.13255 43.3715C6.95814 43.7891 6.8679 44.2369 6.867 44.6894C6.8661 45.1419 6.95456 45.5901 7.1273 46.0084C7.30005 46.4266 7.55368 46.8066 7.87364 47.1265C8.1936 47.4465 8.5736 47.7001 8.99182 47.8729C9.41004 48.0456 9.85826 48.1341 10.3108 48.1332C10.7632 48.1323 11.2111 48.042 11.6286 47.8676C12.0462 47.6932 12.4252 47.4381 12.7438 47.1169L47.1167 12.744ZM7.60128 27.5002C14.5095 17.6415 20.2092 13.7511 27.5 13.7511C30.0112 13.7452 32.4918 14.3017 34.7598 15.3799L29.264 20.8757C28.6905 20.7104 28.0968 20.6262 27.5 20.6256C25.6773 20.6274 23.9298 21.3523 22.6409 22.6411C21.3521 23.93 20.6272 25.6775 20.6254 27.5002C20.626 28.097 20.7102 28.6907 20.8755 29.2641L14.4956 35.644C11.9159 33.1809 9.60489 30.451 7.60128 27.5002Z" fill="#8592AA"/>
<path d="M54.421 25.5937C53.0326 23.5104 51.5673 21.483 50.0262 19.5479L45.13 24.4441C45.8752 25.3991 46.6271 26.3993 47.3987 27.5003C40.778 36.9491 35.252 40.8735 28.3866 41.1873L22.0982 47.4758C23.869 47.8928 25.6809 48.1102 27.5 48.1241C40.1952 48.1241 47.9425 39.128 54.421 29.4069C54.7985 28.8427 55 28.1791 55 27.5003C55 26.8215 54.7985 26.1579 54.421 25.5937Z" fill="#8592AA"/>
</svg>
