<svg width="56" height="56" viewBox="0 0 56 56" fill="none" xmlns="http://www.w3.org/2000/svg">
<path d="M8.18511 8.08436H12.0108V5.95061C12.0108 3.00133 14.4184 0.59375 17.3676 0.59375H47.8149C50.7642 0.59375 53.1718 3.00133 53.1718 5.95061V42.5597C53.1718 45.509 50.7635 47.9159 47.8149 47.9159H43.9892V50.0503C43.9892 52.9996 41.5817 55.4072 38.6324 55.4072H8.18511C5.23583 55.4072 2.82825 52.9996 2.82825 50.0503V13.4412C2.82825 10.4919 5.23583 8.08436 8.18511 8.08436ZM14.7504 8.08436H38.6324C41.5817 8.08436 43.9892 10.4919 43.9892 13.4412V45.1763H47.8149C49.2508 45.1763 50.4315 43.9956 50.4315 42.5597V5.95061C50.4315 4.514 49.2515 3.33336 47.8149 3.33336H17.3676C15.931 3.33336 14.7504 4.514 14.7504 5.95061V8.08436ZM24.0427 20.8829C22.241 20.8829 22.241 18.1433 24.0427 18.1433H34.9774C36.7791 18.1433 36.7791 20.8829 34.9774 20.8829H24.0427ZM12.4744 46.2544C10.6727 46.2544 10.6727 43.5148 12.4744 43.5148H34.343C36.1448 43.5148 36.1448 46.2544 34.343 46.2544H12.4744ZM12.4744 31.1673C10.6727 31.1673 10.6727 28.4277 12.4744 28.4277H34.343C36.1448 28.4277 36.1448 31.1673 34.343 31.1673H12.4744ZM12.4744 36.1961C10.6727 36.1961 10.6727 33.4565 12.4744 33.4565H34.343C36.1448 33.4565 36.1448 36.1961 34.343 36.1961H12.4744ZM12.4744 41.2256C10.6727 41.2256 10.6727 38.486 12.4744 38.486H34.343C36.1448 38.486 36.1448 41.2256 34.343 41.2256H12.4744ZM24.0427 25.2324C22.241 25.2324 22.241 22.4921 24.0427 22.4921H34.9774C36.7791 22.4921 36.7791 25.2324 34.9774 25.2324H24.0427ZM11.8401 17.2371H17.5191C18.2751 17.2371 18.8889 17.8503 18.8889 18.6069V24.7687C18.8889 25.5247 18.2751 26.1385 17.5191 26.1385H11.8401C11.0835 26.1385 10.4703 25.5247 10.4703 24.7687V18.6069C10.4703 17.8503 11.0835 17.2371 11.8401 17.2371ZM16.1493 19.9767H13.2099V23.3983H16.1493V19.9767ZM38.6324 10.824H8.18511C6.7485 10.824 5.56852 12.0046 5.56852 13.4412V50.0503C5.56852 51.4869 6.7485 52.6675 8.18511 52.6675H38.6324C40.069 52.6675 41.2496 51.4869 41.2496 50.0503V13.4412C41.2496 12.0046 40.069 10.824 38.6324 10.824Z" fill="#8592AA"/>
</svg>
