<svg width="52" height="52" viewBox="0 0 52 52" fill="none" xmlns="http://www.w3.org/2000/svg">
<path d="M30.1763 24.895C31.9262 23.8243 33.3629 22.3111 34.3414 20.508C35.32 18.705 35.8059 16.6757 35.75 14.625C35.75 12.0391 34.7228 9.55919 32.8943 7.73071C31.0658 5.90223 28.5859 4.875 26 4.875C23.4141 4.875 20.9342 5.90223 19.1057 7.73071C17.2772 9.55919 16.25 12.0391 16.25 14.625C16.1941 16.6757 16.68 18.705 17.6586 20.508C18.6371 22.3111 20.0738 23.8243 21.8238 24.895C17.9246 25.8319 14.4538 28.0527 11.9692 31.2004C9.48463 34.3481 8.13068 38.2399 8.125 42.25V47.125H11.375V42.25C11.3731 38.9346 12.4978 35.717 14.5646 33.1247C16.6313 30.5324 19.5175 28.7192 22.75 27.9825C22.8184 28.2771 22.9579 28.5505 23.1562 28.7787L24.245 29.8513L22.75 42.0875C22.7256 42.3281 22.7553 42.5712 22.8368 42.7989C22.9184 43.0266 23.0497 43.2332 23.2212 43.4037L24.8463 45.0287C24.9973 45.1811 25.177 45.302 25.3751 45.3844C25.5731 45.4669 25.7855 45.5094 26 45.5094C26.2145 45.5094 26.4269 45.4669 26.6249 45.3844C26.823 45.302 27.0027 45.1811 27.1537 45.0287L28.7787 43.4037C28.9503 43.2332 29.0816 43.0266 29.1632 42.7989C29.2447 42.5712 29.2744 42.3281 29.25 42.0875L27.625 29.8513L28.7138 28.7787C28.9121 28.5505 29.0516 28.2771 29.12 27.9825C32.3765 28.6936 35.2924 30.4957 37.3847 33.0905C39.477 35.6852 40.6203 38.9168 40.625 42.25V47.125H43.875V42.25C43.8693 38.2399 42.5154 34.3481 40.0308 31.2004C37.5462 28.0527 34.0754 25.8319 30.1763 24.895ZM19.5 14.625C19.5 12.9011 20.1848 11.2478 21.4038 10.0288C22.6228 8.80982 24.2761 8.125 26 8.125C27.7239 8.125 29.3772 8.80982 30.5962 10.0288C31.8152 11.2478 32.5 12.9011 32.5 14.625C32.5 19.11 29.5912 22.75 26 22.75C22.4087 22.75 19.5 19.11 19.5 14.625Z" fill="#8592AA"/>
</svg>
