<svg width="72" height="52" viewBox="0 0 72 52" fill="none" xmlns="http://www.w3.org/2000/svg">
<g clip-path="url(#clip0_435_230)">
<path d="M40.8282 20.7032C39.6272 20.1765 38.3725 19.7819 37.0863 19.5262C36.205 19.3221 35.338 19.0599 34.4912 18.7415C33.9972 18.5534 33.5532 18.2539 33.1936 17.8663C32.9127 17.5394 32.7623 17.1203 32.7712 16.6893C32.7562 16.3749 32.8235 16.0619 32.9664 15.7814C33.1093 15.5009 33.3228 15.2625 33.5859 15.0898C34.2802 14.6866 35.078 14.4977 35.8793 14.5465C36.6535 14.521 37.4186 14.7202 38.0821 15.1199C38.349 15.2676 38.5812 15.4705 38.7634 15.7151C38.9455 15.9597 39.0733 16.2404 39.1383 16.5384C39.196 16.6889 39.3003 16.817 39.4361 16.9039C39.5719 16.9908 39.7319 17.0319 39.8927 17.0213H42.3973C42.4694 17.0234 42.5413 17.0112 42.6086 16.9853C42.676 16.9594 42.7375 16.9203 42.7896 16.8704C42.8395 16.8183 42.8786 16.7568 42.9045 16.6894C42.9304 16.622 42.9427 16.5502 42.9405 16.478C42.8966 15.7349 42.6572 15.0165 42.2464 14.3956C41.7619 13.6631 41.1235 13.0451 40.3755 12.5848C39.4575 12.0247 38.4271 11.6744 37.3579 11.5587V9.68755C37.3664 9.53228 37.3147 9.3797 37.2135 9.26162C37.1123 9.14355 36.9695 9.06909 36.8147 9.05378H35.1852C35.1016 9.05258 35.0185 9.06796 34.9408 9.09904C34.8631 9.13012 34.7924 9.17628 34.7326 9.23486C34.6726 9.29357 34.6255 9.36416 34.5943 9.44211C34.5632 9.52006 34.5486 9.60365 34.5515 9.68755V11.4983C33.0388 11.6207 31.6078 12.2355 30.4778 13.2488C29.9931 13.6925 29.6081 14.2339 29.348 14.8374C29.0879 15.4408 28.9587 16.0926 28.969 16.7497C28.926 17.4052 29.0342 18.0618 29.2854 18.6689C29.5365 19.2759 29.9239 19.8171 30.4174 20.2505C31.7804 21.2393 33.3478 21.9097 35.0042 22.2122C36.2515 22.5543 37.197 22.8359 37.8407 23.0573C38.3784 23.2321 38.8723 23.5203 39.2892 23.9023C39.4459 24.055 39.5696 24.2383 39.6526 24.4407C39.7357 24.6432 39.7763 24.8605 39.772 25.0793C39.7781 25.4184 39.6949 25.753 39.5307 26.0497C39.3665 26.3464 39.1271 26.5946 38.8365 26.7694C37.9919 27.2448 37.0276 27.465 36.0603 27.4032C35.1653 27.4503 34.2755 27.2409 33.4954 26.7996C32.9175 26.4587 32.4792 25.9241 32.2582 25.2906C32.177 25.1375 32.0638 25.0037 31.9262 24.8982C31.7687 24.8513 31.6009 24.8513 31.4434 24.8982H29.0293C28.9502 24.8976 28.8719 24.9134 28.7992 24.9446C28.7265 24.9757 28.661 25.0216 28.6069 25.0793C28.5515 25.1288 28.5068 25.1892 28.4757 25.2567C28.4445 25.3242 28.4275 25.3973 28.4258 25.4716C28.462 26.291 28.723 27.0845 29.1802 27.7653C29.7034 28.5298 30.4086 29.1521 31.2322 29.5761C32.2445 30.1042 33.353 30.4225 34.4912 30.5117V32.3527C34.4882 32.4366 34.5028 32.5202 34.534 32.5981C34.5652 32.6761 34.6123 32.7467 34.6722 32.8054C34.732 32.8639 34.8028 32.9101 34.8805 32.9412C34.9581 32.9723 35.0412 32.9876 35.1249 32.9865H36.7544C36.8388 32.9908 36.9231 32.9774 37.0019 32.947C37.0808 32.9167 37.1524 32.8702 37.2121 32.8105C37.2719 32.7507 37.3184 32.6791 37.3487 32.6002C37.379 32.5214 37.3924 32.437 37.3881 32.3527V30.5117C39.0192 30.4155 40.5799 29.8143 41.8541 28.7914C42.3906 28.3361 42.8181 27.7662 43.1054 27.1238C43.3926 26.4814 43.5322 25.7828 43.5138 25.0793C43.5497 24.1775 43.3187 23.2852 42.85 22.514C42.3617 21.7306 41.6604 21.1025 40.8282 20.7032Z" fill="white"/>
<path d="M69.4049 42.5236V4.52709C69.4049 3.93005 69.2868 3.3389 69.0574 2.78769C68.8281 2.23647 68.492 1.73607 68.0685 1.31531C67.6449 0.894541 67.1424 0.561716 66.5897 0.335996C66.0371 0.110276 65.4452 -0.00387966 64.8483 0.000100609H7.15172C5.95124 0.000100609 4.79993 0.47705 3.95107 1.32602C3.1022 2.175 2.62531 3.32646 2.62531 4.52709V42.5236C1.63361 43.0581 0.849585 43.9096 0.398448 44.942C-0.0526887 45.9744 -0.144923 47.1283 0.136475 48.2193C0.417872 49.3103 1.05667 50.2755 1.95087 50.9608C2.84506 51.6461 3.94307 52.012 5.06957 52.0001H66.9304C68.0596 52.019 69.1623 51.6581 70.0618 50.9752C70.9613 50.2923 71.6054 49.327 71.8907 48.2342C72.176 47.1415 72.0861 45.9845 71.6353 44.9489C71.1846 43.9134 70.3991 43.0593 69.4049 42.5236ZM5.64291 4.52709C5.64291 4.12688 5.80188 3.74306 6.08483 3.46007C6.36779 3.17708 6.75156 3.01809 7.15172 3.01809H64.8483C65.2484 3.01809 65.6322 3.17708 65.9152 3.46007C66.1981 3.74306 66.3571 4.12688 66.3571 4.52709V41.8898H5.64291V4.52709ZM66.9304 48.9821H42.7896C42.9843 48.8465 43.1436 48.666 43.2539 48.4559C43.3642 48.2458 43.4223 48.0122 43.4233 47.7749C43.4233 47.3747 43.2643 46.9909 42.9814 46.7079C42.6984 46.4249 42.3147 46.2659 41.9145 46.2659H29.8441C29.4439 46.2659 29.0602 46.4249 28.7772 46.7079C28.4942 46.9909 28.3353 47.3747 28.3353 47.7749C28.3363 48.0122 28.3944 48.2458 28.5047 48.4559C28.615 48.666 28.7743 48.8465 28.969 48.9821H4.82816C4.53986 49.0173 4.24738 48.9908 3.97007 48.9045C3.69275 48.8182 3.43691 48.674 3.21947 48.4814C3.00202 48.2889 2.82793 48.0523 2.7087 47.7875C2.58947 47.5226 2.52781 47.2354 2.52781 46.945C2.52781 46.6545 2.58947 46.3673 2.7087 46.1025C2.82793 45.8376 3.00202 45.6011 3.21947 45.4085C3.43691 45.2159 3.69275 45.0717 3.97007 44.9854C4.24738 44.8991 4.53986 44.8727 4.82816 44.9078H66.9304C67.2187 44.8727 67.5112 44.8991 67.7885 44.9854C68.0658 45.0717 68.3217 45.2159 68.5391 45.4085C68.7566 45.6011 68.9306 45.8376 69.0499 46.1025C69.1691 46.3673 69.2308 46.6545 69.2308 46.945C69.2308 47.2354 69.1691 47.5226 69.0499 47.7875C68.9306 48.0523 68.7566 48.2889 68.5391 48.4814C68.3217 48.674 68.0658 48.8182 67.7885 48.9045C67.5112 48.9908 67.2187 49.0173 66.9304 48.9821Z" fill="white"/>
</g>
<defs>
<clipPath id="clip0_435_230">
<rect width="72" height="52" fill="white"/>
</clipPath>
</defs>
</svg>
