<svg width="67" height="67" viewBox="0 0 67 67" fill="none" xmlns="http://www.w3.org/2000/svg">
<path d="M13.9583 55.8337C17.0419 55.8337 19.5417 53.3339 19.5417 50.2503C19.5417 47.1667 17.0419 44.667 13.9583 44.667C10.8747 44.667 8.375 47.1667 8.375 50.2503C8.375 53.3339 10.8747 55.8337 13.9583 55.8337Z" stroke="white" stroke-width="4" stroke-linecap="round" stroke-linejoin="round"/>
<path d="M53.0416 22.3337C56.1252 22.3337 58.625 19.8339 58.625 16.7503C58.625 13.6667 56.1252 11.167 53.0416 11.167C49.9581 11.167 47.4583 13.6667 47.4583 16.7503C47.4583 19.8339 49.9581 22.3337 53.0416 22.3337Z" stroke="white" stroke-width="4" stroke-linecap="round" stroke-linejoin="round"/>
<path d="M53.0416 22.333V36.2913C53.0416 39.9933 51.571 43.5437 48.9533 46.1614C46.3357 48.7791 42.7853 50.2497 39.0833 50.2497H30.7083L39.0833 41.8747M39.0833 58.6247L30.7083 50.2497" stroke="white" stroke-width="4" stroke-linecap="round" stroke-linejoin="round"/>
<path d="M13.9583 44.6667V30.7083C13.9583 27.0064 15.4289 23.456 18.0466 20.8383C20.6643 18.2206 24.2147 16.75 27.9166 16.75H36.2916L27.9166 8.375M27.9166 25.125L36.2916 16.75" stroke="white" stroke-width="4" stroke-linecap="round" stroke-linejoin="round"/>
</svg>
