<svg width="25" height="25" viewBox="0 0 25 25" fill="none" xmlns="http://www.w3.org/2000/svg">
<path d="M24.3565 12.2866C24.3565 5.81011 19.1128 0.566406 12.6363 0.566406C6.15984 0.566406 0.916138 5.81011 0.916138 12.2866C0.916138 18.138 5.20486 22.9824 10.8132 23.8679V15.6724H7.82671V12.2866H10.8132V9.69948C10.8132 6.76509 12.5495 5.15031 15.2235 5.15031C16.5083 5.15031 17.8453 5.37603 17.8453 5.37603V8.25833H16.3694C14.9109 8.25833 14.4595 9.16122 14.4595 10.0815V12.2866H17.7064L17.1855 15.6724H14.4595V23.8679C20.0678 22.9824 24.3565 18.138 24.3565 12.2866Z" fill="#A9A9A9"/>
<path d="M17.2029 15.6723L17.7238 12.2864H14.4595V10.0813C14.4595 9.16106 14.9109 8.25817 16.3694 8.25817H17.8453V5.37587C17.8453 5.37587 16.5084 5.15015 15.2235 5.15015C12.5495 5.15015 10.8132 6.76493 10.8132 9.69932V12.2864H7.82672V15.6723H10.8132V23.8677C11.4036 23.9546 12.0286 24.0066 12.6363 24.0066C13.2614 24.0066 13.8691 23.9546 14.4595 23.8677V15.6723H17.2029Z" fill="#F3F7FA"/>
</svg>
