<svg width="47" height="47" viewBox="0 0 47 47" fill="none" xmlns="http://www.w3.org/2000/svg">
<mask id="mask0_49_1493" style="mask-type:alpha" maskUnits="userSpaceOnUse" x="0" y="0" width="47" height="47">
<g clip-path="url(#clip0_49_1493)">
<path d="M44.705 15.2474C45.8433 15.3025 46.6144 14.8619 46.9907 13.7695C46.9907 13.5217 46.9907 13.283 46.9907 13.0351C46.6144 11.9336 45.8341 11.5021 44.6958 11.5572C43.8788 11.6031 43.0527 11.5664 42.2357 11.5664C42.2173 11.4379 42.1898 11.3093 42.1714 11.1808C42.1439 10.9697 42.098 10.7677 42.0337 10.575C41.1984 7.2611 39.0044 5.33337 35.4243 4.74587C35.4243 3.782 35.4427 2.80896 35.4151 1.83591C35.3876 0.541572 34.1759 -0.302959 32.9825 0.110127C32.2482 0.357978 31.7616 1.0281 31.7525 1.86345C31.7433 2.80895 31.7525 3.75446 31.7525 4.73669C29.6136 4.73669 27.5023 4.73669 25.3267 4.73669C25.3267 3.80036 25.3359 2.85485 25.3267 1.90935C25.3175 1.03728 24.8493 0.357978 24.0966 0.100947C22.9032 -0.312139 21.6915 0.532393 21.664 1.81755C21.6364 2.78142 21.6548 3.7361 21.6548 4.73669C19.5068 4.73669 17.3954 4.73669 15.229 4.73669C15.229 3.782 15.2382 2.84567 15.229 1.90017C15.2198 1.03728 14.7425 0.357978 13.9898 0.100947C12.7964 -0.302959 11.5939 0.541572 11.5663 1.83591C11.548 2.79978 11.5663 3.76364 11.5663 4.74587C7.69249 5.35173 5.42511 7.58239 4.75499 11.4746C3.78194 11.4746 2.8089 11.4562 1.83585 11.4746C0.541514 11.5021 -0.303017 12.7047 0.100889 13.898C0.348741 14.6324 1.01886 15.1189 1.85421 15.1373C2.79972 15.1465 3.74523 15.1373 4.73663 15.1373C4.73663 17.3037 4.73663 19.4517 4.73663 21.6549C3.91046 21.6549 3.07511 21.6549 2.23976 21.6549C1.9919 21.6549 1.74405 21.6457 1.50538 21.6916C0.578233 21.866 -0.0551657 22.683 -8.75732e-05 23.6009C0.0549906 24.5373 0.807725 25.2717 1.77159 25.3175C2.25812 25.3359 2.75382 25.3267 3.24034 25.3267C3.72687 25.3267 4.21339 25.3267 4.73663 25.3267C4.73663 27.4656 4.73663 29.5861 4.73663 31.7525C3.79112 31.7525 2.84562 31.7433 1.90011 31.7525C1.02804 31.7617 0.348741 32.239 0.100889 32.9918C-0.303017 34.1851 0.541514 35.3877 1.82667 35.4244C2.79054 35.4519 3.75441 35.4336 4.73663 35.4336C5.36085 39.3441 7.61905 41.6115 11.5571 42.2541C11.5571 43.0711 11.5939 43.8972 11.548 44.7142C11.4929 45.8525 11.9243 46.6328 13.0259 47.0091C13.2737 47.0091 13.5124 47.0091 13.7603 47.0091C14.8526 46.6328 15.2933 45.8617 15.2382 44.7234C15.1923 43.9156 15.229 43.1078 15.229 42.2724C17.3679 42.2724 19.4792 42.2724 21.6548 42.2724C21.6548 43.0894 21.6915 43.9064 21.6456 44.7234C21.5905 45.8617 22.0312 46.6328 23.1235 47.0091C23.3714 47.0091 23.6101 47.0091 23.8579 47.0091C24.9503 46.6328 25.3909 45.8617 25.3359 44.7234C25.29 43.9156 25.3267 43.1078 25.3267 42.2724C27.4655 42.2724 29.5769 42.2724 31.7525 42.2724C31.7525 43.0894 31.7892 43.9064 31.7433 44.7234C31.6882 45.8617 32.1288 46.6328 33.2212 47.0091C33.4691 47.0091 33.7077 47.0091 33.9556 47.0091C35.048 46.6328 35.4886 45.8617 35.4335 44.7234C35.3876 43.9064 35.4243 43.0802 35.4243 42.2541C39.3073 41.639 41.5747 39.4084 42.2357 35.5345C43.0618 35.5345 43.888 35.4978 44.705 35.5437C45.8433 35.5988 46.6144 35.1582 46.9907 34.0658C46.9907 33.8179 46.9907 33.5793 46.9907 33.3314C46.6878 32.5052 46.1737 31.8994 45.2466 31.881C44.2368 31.8627 43.2271 31.8535 42.2173 31.8627V25.3359C43.0802 25.3359 43.888 25.2992 44.6958 25.3451C45.8341 25.4002 46.6144 24.9687 46.9907 23.8672C46.9907 23.6193 46.9907 23.3806 46.9907 23.1328C46.6144 22.0404 45.8433 21.5998 44.705 21.6549C43.8972 21.7008 43.0894 21.664 42.254 21.664C42.254 19.5252 42.254 17.4138 42.254 15.2383C43.071 15.2383 43.8972 15.2015 44.705 15.2474ZM12.4384 27.8144C12.7597 25.134 13.5308 22.6004 14.8526 20.2412C15.2015 19.6261 15.6146 19.0386 16.0735 18.3134C15.8532 18.1299 15.5687 17.9279 15.33 17.6892C14.5589 16.909 14.5314 15.8349 15.2382 15.1281C15.945 14.4213 17.0099 14.4672 17.7993 15.2383C18.038 15.4677 18.24 15.7431 18.4603 16.0002C19.929 14.8619 21.4712 14.0724 23.1144 13.4758C24.7575 12.8791 26.4466 12.4752 28.1816 12.3191C29.0995 12.2365 29.8523 12.7506 30.0909 13.5675C30.3296 14.4029 29.9716 15.1832 29.1454 15.633C27.7226 16.4041 26.263 17.1293 24.8769 17.9738C24.0232 18.497 23.2796 19.2131 22.38 19.9383C22.6187 20.1035 22.7747 20.1861 22.8941 20.3146C26.0794 23.4724 29.2464 26.6394 32.4318 29.7972C32.9734 30.3388 33.2763 30.9355 33.0468 31.7066C32.7071 32.8541 31.3577 33.3222 30.3755 32.6246C30.2011 32.4961 30.045 32.34 29.889 32.1931C26.7128 29.0261 23.5366 25.8683 20.3513 22.7013C20.2411 22.5912 20.1218 22.481 19.9749 22.3433C19.5435 22.8849 19.1028 23.3806 18.7081 23.9222C17.579 25.4736 16.5693 27.0892 15.7706 28.8426C15.3392 29.7789 14.4946 30.1828 13.6134 29.9166C12.7505 29.6595 12.3099 28.8517 12.4384 27.8144Z" fill="black"/>
</g>
</mask>
<g mask="url(#mask0_49_1493)">
<rect x="-16.5884" y="-22.1177" width="80.1765" height="79.0706" fill="white"/>
</g>
<defs>
<clipPath id="clip0_49_1493">
<rect width="47" height="47" fill="white"/>
</clipPath>
</defs>
</svg>
