<svg width="25" height="24" viewBox="0 0 25 24" fill="none" xmlns="http://www.w3.org/2000/svg">
<path d="M12.6363 23.5732C19.1092 23.5732 24.3565 18.3259 24.3565 11.853C24.3565 5.38012 19.1092 0.132812 12.6363 0.132812C6.16345 0.132812 0.916138 5.38012 0.916138 11.853C0.916138 18.3259 6.16345 23.5732 12.6363 23.5732Z" fill="#A9A9A9"/>
<path d="M12.6364 5.81036C14.5985 5.81036 14.8415 5.81036 15.6229 5.84509C16.3348 5.87981 16.7341 6.00136 16.9946 6.10554C17.3419 6.24444 17.5849 6.40071 17.8454 6.66116C18.1058 6.92161 18.2621 7.16469 18.401 7.51196C18.5052 7.77241 18.6267 8.1544 18.6615 8.88366C18.6962 9.665 18.6962 9.89073 18.6962 11.8701C18.6962 13.8495 18.6962 14.0753 18.6615 14.8566C18.6267 15.5685 18.5052 15.9679 18.401 16.2283C18.2621 16.5756 18.1058 16.8187 17.8454 17.0791C17.5849 17.3396 17.3419 17.4958 16.9946 17.6347C16.7341 17.7389 16.3521 17.8605 15.6229 17.8952C14.8415 17.9299 14.6158 17.9299 12.6364 17.9299C10.6744 17.9299 10.4313 17.9299 9.64993 17.8952C8.93803 17.8605 8.53868 17.7389 8.27823 17.6347C7.93097 17.4958 7.68788 17.3396 7.42743 17.0791C7.16698 16.8187 7.01071 16.5756 6.87181 16.2283C6.76763 15.9679 6.64608 15.5859 6.61136 14.8566C6.57663 14.0753 6.57663 13.8495 6.57663 11.8701C6.57663 9.89073 6.57663 9.665 6.61136 8.88366C6.64608 8.17176 6.76763 7.77241 6.87181 7.51196C7.01071 7.16469 7.16698 6.92161 7.42743 6.66116C7.68788 6.40071 7.93097 6.24444 8.27823 6.10554C8.53868 6.00136 8.92067 5.87981 9.64993 5.84509C10.4313 5.81036 10.6744 5.81036 12.6364 5.81036ZM12.6364 4.47339C10.6396 4.47339 10.3792 4.47339 9.59783 4.52548C8.81649 4.5602 8.27823 4.68175 7.80942 4.87274C7.32325 5.06374 6.90653 5.30683 6.50718 5.72354C6.09046 6.14026 5.84737 6.53962 5.65638 7.02579C5.46538 7.4946 5.34384 8.03286 5.30911 8.8142C5.27439 9.59555 5.25702 9.856 5.25702 11.8528C5.25702 13.8495 5.25702 14.11 5.30911 14.8913C5.34384 15.6727 5.46538 16.211 5.65638 16.6798C5.84737 17.1659 6.09046 17.5827 6.50718 17.982C6.92389 18.3987 7.32325 18.6418 7.80942 18.8328C8.27823 19.0238 8.81649 19.1453 9.59783 19.1801C10.3792 19.2148 10.6396 19.2322 12.6364 19.2322C14.6332 19.2322 14.8936 19.2322 15.675 19.1801C16.4563 19.1453 16.9946 19.0238 17.4634 18.8328C17.9496 18.6418 18.3663 18.3987 18.7656 17.982C19.1824 17.5653 19.4254 17.1659 19.6164 16.6798C19.8074 16.211 19.929 15.6727 19.9637 14.8913C19.9984 14.11 20.0158 13.8495 20.0158 11.8528C20.0158 9.856 20.0158 9.59555 19.9637 8.8142C19.929 8.03286 19.8074 7.4946 19.6164 7.02579C19.4254 6.53962 19.1824 6.1229 18.7656 5.72354C18.3489 5.30683 17.9496 5.06374 17.4634 4.87274C16.9946 4.68175 16.4563 4.5602 15.675 4.52548C14.8936 4.47339 14.6505 4.47339 12.6364 4.47339Z" fill="#F3F7FA"/>
<path d="M12.6364 8.06738C10.5354 8.06738 8.8512 9.76898 8.8512 11.8526C8.8512 13.9362 10.5528 15.6378 12.6364 15.6378C14.7373 15.6378 16.4216 13.9362 16.4216 11.8526C16.4216 9.76898 14.7373 8.06738 12.6364 8.06738ZM12.6364 14.3182C11.2821 14.3182 10.1708 13.2243 10.1708 11.8526C10.1708 10.4809 11.2647 9.38699 12.6364 9.38699C13.9907 9.38699 15.102 10.4809 15.102 11.8526C15.102 13.2243 14.0081 14.3182 12.6364 14.3182Z" fill="#F3F7FA"/>
<path d="M16.5778 8.79644C17.0669 8.79644 17.4634 8.39998 17.4634 7.91092C17.4634 7.42185 17.0669 7.02539 16.5778 7.02539C16.0888 7.02539 15.6923 7.42185 15.6923 7.91092C15.6923 8.39998 16.0888 8.79644 16.5778 8.79644Z" fill="#F3F7FA"/>
</svg>
