<svg width="25" height="24" viewBox="0 0 25 24" fill="none" xmlns="http://www.w3.org/2000/svg">
<path d="M12.6363 23.7063C19.1092 23.7063 24.3565 18.459 24.3565 11.9861C24.3565 5.51318 19.1092 0.265869 12.6363 0.265869C6.16345 0.265869 0.916138 5.51318 0.916138 11.9861C0.916138 18.459 6.16345 23.7063 12.6363 23.7063Z" fill="#A9A9A9"/>
<path d="M13.5393 10.3885C13.7303 10.1801 13.8865 9.95438 14.0949 9.76339C14.7026 9.1904 15.4145 8.89523 16.2653 8.91259C16.7341 8.91259 17.1856 8.94732 17.6196 9.08622C18.6441 9.3814 19.2344 10.0759 19.5122 11.083C19.7206 11.8296 19.7553 12.5936 19.7727 13.3576C19.7727 14.9724 19.7727 16.5871 19.7727 18.2193C19.7727 18.3756 19.7379 18.4103 19.5817 18.4103C18.7482 18.4103 17.9148 18.4103 17.0814 18.4103C16.9425 18.4103 16.9077 18.3582 16.9077 18.2193C16.9077 16.674 16.9077 15.146 16.9077 13.6007C16.9077 13.2187 16.8904 12.8367 16.7688 12.4547C16.5778 11.7602 16.0743 11.4129 15.345 11.4476C14.3553 11.4997 13.8344 11.9859 13.7129 12.993C13.6782 13.236 13.6608 13.4791 13.6608 13.7222C13.6608 15.2155 13.6608 16.7261 13.6608 18.2193C13.6608 18.3756 13.6261 18.4103 13.4698 18.4103C12.6364 18.4103 11.7856 18.4103 10.9521 18.4103C10.8132 18.4103 10.7785 18.3756 10.7785 18.2367C10.7785 15.2675 10.7785 12.2984 10.7785 9.32931C10.7785 9.1904 10.8306 9.15567 10.9695 9.15567C11.7682 9.15567 12.5669 9.15567 13.3656 9.15567C13.5045 9.15567 13.5566 9.20776 13.5393 9.34667C13.5393 9.67657 13.5393 10.0412 13.5393 10.3885Z" fill="#F3F7FA"/>
<path d="M8.9727 13.7744C8.9727 15.2503 8.9727 16.7088 8.9727 18.1847C8.9727 18.341 8.93797 18.393 8.76434 18.393C7.9309 18.3757 7.09746 18.393 6.26403 18.393C6.12512 18.393 6.09039 18.3583 6.09039 18.2194C6.09039 15.2503 6.09039 12.2812 6.09039 9.31206C6.09039 9.19052 6.12512 9.13843 6.24667 9.13843C7.09747 9.13843 7.9309 9.13843 8.7817 9.13843C8.93797 9.13843 8.9727 9.20788 8.9727 9.34679C8.9727 10.8227 8.9727 12.2985 8.9727 13.7744Z" fill="#F3F7FA"/>
<path d="M9.19849 6.20401C9.19849 7.12426 8.45187 7.87088 7.53161 7.87088C6.62873 7.87088 5.86475 7.12426 5.86475 6.22137C5.86475 5.30112 6.61136 4.5545 7.53161 4.5545C8.45187 4.53713 9.19849 5.28375 9.19849 6.20401Z" fill="#F3F7FA"/>
</svg>
