<svg width="25" height="24" viewBox="0 0 25 24" fill="none" xmlns="http://www.w3.org/2000/svg">
<path d="M12.6363 23.4404C19.1092 23.4404 24.3565 18.1931 24.3565 11.7202C24.3565 5.24731 19.1092 0 12.6363 0C6.16345 0 0.916138 5.24731 0.916138 11.7202C0.916138 18.1931 6.16345 23.4404 12.6363 23.4404Z" fill="#A9A9A9"/>
<path d="M18.3314 6.96267C18.2793 6.82376 18.2273 6.78904 18.1578 6.77168C17.9668 6.70222 17.6716 6.80641 17.6716 6.80641C17.6716 6.80641 6.71541 10.7305 6.09033 11.1646C5.95143 11.2514 5.9167 11.3209 5.88197 11.3729C5.77779 11.6855 6.1077 11.8244 6.1077 11.8244L8.93791 12.7446C8.93791 12.7446 9.04209 12.762 9.07682 12.7446C9.71926 12.3453 15.5359 8.66427 15.8658 8.54273C15.9179 8.52537 15.9527 8.54272 15.9527 8.57745C15.8138 9.04626 10.761 13.5433 10.761 13.5433C10.761 13.5433 10.7437 13.5607 10.7263 13.5954L10.4659 16.3909C10.4659 16.3909 10.3617 17.2417 11.2125 16.3909C11.8202 15.7832 12.4106 15.2797 12.6884 15.0366C13.6607 15.7137 14.7025 16.443 15.154 16.8424C15.3797 17.0334 15.5707 17.0681 15.7269 17.0681C16.161 17.0507 16.2826 16.5819 16.2826 16.5819C16.2826 16.5819 18.2793 8.54273 18.3488 7.46621C18.3488 7.36203 18.3662 7.29257 18.3662 7.22312C18.3662 7.10157 18.3488 7.01476 18.3314 6.96267Z" fill="#F3F7FA"/>
</svg>
