<svg width="228" height="45" viewBox="0 0 228 45" fill="none" xmlns="http://www.w3.org/2000/svg">
<g clip-path="url(#clip0_1_872)">
<path d="M22.5373 -4.35486e-06C21.9191 -4.35486e-06 21.3009 0.0257068 20.6828 0.0771354C16.757 0.376375 12.9803 1.7071 9.73611 3.93428C6.0511 6.47522 3.2074 10.0541 1.56748 14.2146C-0.0724394 18.3752 -0.434291 22.9291 0.528024 27.2957C1.62977 32.3065 4.41449 36.7905 8.42016 40.0038C12.4258 43.217 17.4116 44.9663 22.5501 44.9614C24.0909 44.9649 25.6277 44.8055 27.1349 44.4857C30.4506 43.8034 33.5682 42.3791 36.2528 40.32C39.269 38.0135 41.6514 34.9825 43.1782 31.5092C44.7049 28.0359 45.3263 24.2334 44.9844 20.4557C44.645 16.5605 43.286 12.8228 41.0436 9.61715C38.9648 6.63979 36.1969 4.20727 32.9751 2.52626C29.7532 0.845255 26.1726 -0.0345882 22.5373 -0.0385742V-4.35486e-06Z" fill="url(#paint0_linear_1_872)"/>
<path d="M22.2539 2.63574C16.5359 12.45 10.8093 22.2472 5.0741 32.0272L5.44754 32.6957H39.6012C39.7429 32.4643 39.8588 32.2329 39.9875 32.0015C34.2695 22.2043 28.5515 12.4157 22.8334 2.63574H22.2539Z" fill="white"/>
<path d="M21.7646 20.0057C22.1908 19.8919 22.6392 19.8894 23.0667 19.9983C23.4942 20.1072 23.8865 20.3239 24.206 20.6276C24.5255 20.9314 24.7615 21.312 24.8914 21.7329C25.0212 22.1539 25.0406 22.6011 24.9477 23.0317C24.8547 23.4622 24.6526 23.8618 24.3606 24.1919C24.0685 24.5221 23.6964 24.7718 23.28 24.9172C22.8635 25.0626 22.4166 25.0987 21.9821 25.0222C21.5476 24.9456 21.1402 24.7589 20.7987 24.48C20.4318 24.1803 20.1549 23.7854 19.9985 23.3386C19.842 22.8919 19.8121 22.4107 19.9119 21.9481C20.0118 21.4855 20.2376 21.0594 20.5645 20.7167C20.8914 20.374 21.3066 20.1279 21.7646 20.0057Z" fill="url(#paint1_linear_1_872)"/>
<path d="M8.34521 8.5629C12.0242 4.84367 17.0188 2.71521 22.254 2.63574C16.5359 12.45 10.8093 22.2472 5.07411 32.0272C3.01878 28.2851 2.22698 23.9811 2.81626 19.754C3.40554 15.527 5.34446 11.6025 8.34521 8.5629Z" fill="#A31E22"/>
<path d="M22.8335 2.63574C26.259 2.69092 29.612 3.62874 32.5677 5.35827C35.5233 7.0878 37.9812 9.5504 39.703 12.5073C41.4249 15.4641 42.3524 18.815 42.3955 22.235C42.4385 25.6549 41.5958 29.028 39.949 32.0272C34.2653 22.2472 28.5601 12.45 22.8335 2.63574Z" fill="#A31E22"/>
<path d="M5.43469 32.6958H39.627C38.2249 35.0362 36.3558 37.0639 34.1357 38.6527C31.9156 40.2415 29.392 41.3575 26.7216 41.9315C24.0512 42.5054 21.2911 42.525 18.6128 41.989C15.9345 41.453 13.3952 40.3729 11.1527 38.8158C8.83507 37.202 6.88626 35.1162 5.43469 32.6958Z" fill="#A31E22"/>
<path d="M70.3421 8.35712V12.5486H64.6241V36.3471H60.0522V12.5743H54.1152L55.0811 8.38282L70.3421 8.35712ZM84.2508 8.35712L85.1394 12.6385H77.8245V20.9828H85.8091V25.0714H77.8245V32.1171H85.1394V36.3214H73.2397V25.0714H71.4754V20.9185H73.2397V8.35712H84.2508ZM103.749 12.8828C101.69 12.0826 99.5159 11.6181 97.3096 11.5071C96.8121 11.4795 96.314 11.5511 95.8446 11.7179C95.3751 11.8846 94.9437 12.1432 94.5756 12.4784C94.2075 12.8136 93.91 13.2187 93.7005 13.6701C93.4911 14.1215 93.3739 14.61 93.3559 15.1071C93.3588 15.6382 93.4862 16.1613 93.7277 16.6346C93.9692 17.1078 94.3181 17.5182 94.7467 17.8328C96.022 18.6898 97.4085 19.369 98.8678 19.8514C100.883 20.495 102.733 21.5701 104.29 23.0014C105.759 24.4737 106.587 26.4648 106.595 28.5428C106.595 33.4028 102.525 37.0928 97.1808 37.0928C94.0624 37.0642 90.9871 36.3624 88.1658 35.0357L89.3893 31.1785C94.0899 32.7343 95.0945 32.9785 97.1164 32.9785C99.9754 32.9785 101.997 31.1786 101.997 28.6586C102.006 28.0144 101.838 27.3801 101.511 26.8247C101.184 26.2694 100.711 25.8141 100.143 25.5085C99.0288 24.8151 97.8463 24.2378 96.6141 23.7857C94.6724 22.9826 92.8382 21.9418 91.1537 20.6871C90.3771 20.0083 89.7573 19.1694 89.3371 18.2282C88.9169 17.287 88.7062 16.266 88.7196 15.2357C88.7196 10.7871 92.4157 7.63712 97.6701 7.63712C100.332 7.68456 102.958 8.25697 105.397 9.3214L103.749 12.8828ZM114.502 8.35712V32.2328H122.487V36.3471H110.008V8.35712H114.502ZM135.52 7.46997L145.9 36.3471H140.98L138.752 30.2143H131.386L129.364 36.4242H124.406L126.505 30.2143H125.075L126.466 26.1385H127.896L134.232 7.54711L135.52 7.46997ZM132.674 26.0871H137.336L134.902 19.2857L132.674 26.0871Z" fill="url(#paint2_linear_1_872)"/>
<path d="M149.248 8.35712L153.46 25.1357L159.255 9.7071L165.308 25.1357L169.429 8.35712H174.129L166.608 37.4785H165.514L159.384 21.6514L153.279 37.5043H152.236L144.548 8.35712H149.248ZM184.303 7.46997L194.683 36.3471H189.764L187.536 30.2143H180.144L178.122 36.4242H173.164L175.263 30.2143H173.885L175.276 26.1385H176.705L183.041 7.54711L184.303 7.46997ZM181.444 26.0614H186.106L183.672 19.26L181.444 26.0614ZM209.944 8.35712V12.5486H204.226V36.3471H199.642V12.5743H193.679L194.645 8.38282L209.944 8.35712ZM227.974 8.35712V12.5486H222.256V36.3471H217.671V12.5743H211.709L212.675 8.38282L227.974 8.35712Z" fill="#A31E22"/>
</g>
<defs>
<linearGradient id="paint0_linear_1_872" x1="22.5373" y1="45" x2="22.5373" y2="-4.05138e-06" gradientUnits="userSpaceOnUse">
<stop stop-color="#37373E"/>
<stop offset="0.47" stop-color="#34343B"/>
<stop offset="0.76" stop-color="#2C2C33"/>
<stop offset="0.99" stop-color="#1E1E25"/>
<stop offset="1" stop-color="#1D1D24"/>
</linearGradient>
<linearGradient id="paint1_linear_1_872" x1="22.5373" y1="25.1229" x2="22.5373" y2="19.8771" gradientUnits="userSpaceOnUse">
<stop stop-color="#37373E"/>
<stop offset="0.47" stop-color="#34343B"/>
<stop offset="0.76" stop-color="#2C2C33"/>
<stop offset="0.99" stop-color="#1E1E25"/>
<stop offset="1" stop-color="#1D1D24"/>
</linearGradient>
<linearGradient id="paint2_linear_1_872" x1="99.9882" y1="37.1186" x2="99.9882" y2="7.49569" gradientUnits="userSpaceOnUse">
<stop stop-color="#37373E"/>
<stop offset="0.47" stop-color="#34343B"/>
<stop offset="0.76" stop-color="#2C2C33"/>
<stop offset="0.99" stop-color="#1E1E25"/>
<stop offset="1" stop-color="#1D1D24"/>
</linearGradient>
<clipPath id="clip0_1_872">
<rect width="228" height="45" fill="white"/>
</clipPath>
</defs>
</svg>
