<svg width="25" height="25" viewBox="0 0 25 25" fill="none" xmlns="http://www.w3.org/2000/svg">
<path d="M12.6363 24.2727C19.1092 24.2727 24.3565 19.0254 24.3565 12.5525C24.3565 6.07959 19.1092 0.832275 12.6363 0.832275C6.16345 0.832275 0.916138 6.07959 0.916138 12.5525C0.916138 19.0254 6.16345 24.2727 12.6363 24.2727Z" fill="#A9A9A9"/>
<path d="M10.2576 19.3067C15.9874 19.3067 19.1128 14.5665 19.1128 10.4514C19.1128 10.3125 19.1128 10.191 19.0955 10.0521C19.7032 9.61797 20.2241 9.06235 20.6408 8.43727C20.0852 8.68036 19.4775 8.85399 18.8524 8.92344C19.4948 8.54145 19.981 7.93374 20.2241 7.20448C19.6164 7.56911 18.9566 7.8122 18.2447 7.96846C17.6717 7.36075 16.873 6.97876 15.9701 6.97876C14.2511 6.97876 12.8621 8.36782 12.8621 10.0868C12.8621 10.3299 12.8968 10.573 12.9489 10.7987C10.3617 10.6771 8.06979 9.42698 6.54182 7.55175C6.28137 8.00319 6.12511 8.54145 6.12511 9.11444C6.12511 10.191 6.68073 11.1459 7.51417 11.7016C7.01063 11.6842 6.52446 11.5453 6.10774 11.3196C6.10774 11.3369 6.10774 11.3369 6.10774 11.3543C6.10774 12.8649 7.18427 14.1151 8.60805 14.4102C8.3476 14.4797 8.06979 14.5144 7.79198 14.5144C7.58362 14.5144 7.39263 14.497 7.20163 14.4623C7.60099 15.6951 8.74695 16.598 10.1013 16.6154C9.04213 17.4488 7.6878 17.9523 6.22928 17.9523C5.9862 17.9523 5.72575 17.935 5.48267 17.9176C6.87173 18.7858 8.50387 19.3067 10.2576 19.3067Z" fill="#F3F7FA"/>
</svg>
