<svg width="25" height="25" viewBox="0 0 25 25" fill="none" xmlns="http://www.w3.org/2000/svg">
<path d="M12.6363 24.1399C19.1092 24.1399 24.3565 18.8926 24.3565 12.4197C24.3565 5.94677 19.1092 0.699463 12.6363 0.699463C6.16345 0.699463 0.916138 5.94677 0.916138 12.4197C0.916138 18.8926 6.16345 24.1399 12.6363 24.1399Z" fill="#A9A9A9"/>
<path d="M20.12 8.66916C19.9463 7.99199 19.4081 7.47109 18.7309 7.2801C17.5155 6.95019 12.619 6.9502 12.619 6.9502C12.619 6.9502 7.73996 6.95019 6.50717 7.2801C5.83 7.45373 5.3091 7.99199 5.11811 8.66916C4.78821 9.88458 4.78821 12.437 4.78821 12.437C4.78821 12.437 4.78821 14.972 5.11811 16.2048C5.29174 16.882 5.83 17.4029 6.50717 17.5939C7.7226 17.9238 12.619 17.9238 12.619 17.9238C12.619 17.9238 17.4981 17.9238 18.7309 17.5939C19.4081 17.4202 19.929 16.882 20.12 16.2048C20.4499 14.9894 20.4499 12.437 20.4499 12.437C20.4499 12.437 20.4499 9.88458 20.12 8.66916ZM11.0737 14.7637V10.0756L15.1367 12.4196L11.0737 14.7637Z" fill="#F3F7FA"/>
</svg>
